<svg width="19" height="19" viewBox="0 0 19 19" fill="none" xmlns="http://www.w3.org/2000/svg">
<path d="M18.2118 11.3621V16.4209C18.2118 16.9576 17.9986 17.4723 17.6191 17.8518C17.2396 18.2313 16.7249 18.4445 16.1883 18.4445H2.02353C1.48686 18.4445 0.972164 18.2313 0.592679 17.8518C0.213193 17.4723 0 16.9576 0 16.4209V2.2562C0 1.71952 0.213193 1.20483 0.592679 0.825345C0.972164 0.445859 1.48686 0.232666 2.02353 0.232666H7.08236V2.2562H2.02353V16.4209H16.1883V11.3621H18.2118Z" fill="#76C3FF"/>
<path d="M18.2117 4.27968H14.1646V0.23262H12.1411V4.27968H8.09406V6.30321H12.1411V10.3503H14.1646V6.30321H18.2117V4.27968Z" fill="#76C3FF"/>
</svg>
