<svg width="19" height="21" viewBox="0 0 19 21" fill="none" xmlns="http://www.w3.org/2000/svg">
<mask id="path-1-inside-1_121_109" fill="white">
<path d="M18.4764 12.6464L16.6118 10.7818V8.31167C16.6096 6.60467 15.9746 4.9591 14.8295 3.69316C13.6845 2.42721 12.1107 1.63081 10.4124 1.45797V0.0458984H9.03481V1.45797C7.33659 1.63081 5.76278 2.42721 4.6177 3.69316C3.47262 4.9591 2.83762 6.60467 2.83548 8.31167V10.7818L0.970865 12.6464C0.841679 12.7755 0.769082 12.9507 0.769043 13.1334V15.1998C0.769043 15.3825 0.841614 15.5577 0.970792 15.6869C1.09997 15.816 1.27517 15.8886 1.45786 15.8886H6.27955V16.4238C6.26457 17.2977 6.57258 18.1463 7.14456 18.8072C7.71653 19.468 8.51225 19.8945 9.37922 20.005C9.85807 20.0525 10.3416 19.9992 10.7986 19.8486C11.2556 19.698 11.6761 19.4534 12.0329 19.1306C12.3897 18.8078 12.675 18.4138 12.8705 17.9741C13.0659 17.5344 13.1672 17.0586 13.1677 16.5774V15.8886H17.9894C18.1721 15.8886 18.3473 15.816 18.4765 15.6869C18.6056 15.5577 18.6782 15.3825 18.6782 15.1998V13.1334C18.6782 12.9507 18.6056 12.7755 18.4764 12.6464ZM11.7901 16.5774C11.7901 17.1255 11.5724 17.6511 11.1848 18.0386C10.7973 18.4262 10.2717 18.6439 9.72362 18.6439C9.17557 18.6439 8.64996 18.4262 8.26243 18.0386C7.8749 17.6511 7.65718 17.1255 7.65718 16.5774V15.8886H11.7901V16.5774ZM17.3006 14.511H2.14667V13.4185L4.01129 11.5539C4.14048 11.4248 4.21307 11.2496 4.21311 11.0669V8.31167C4.21311 6.85019 4.79368 5.44857 5.8271 4.41515C6.86053 3.38172 8.26215 2.80115 9.72362 2.80115C11.1851 2.80115 12.5867 3.38172 13.6201 4.41515C14.6536 5.44857 15.2341 6.85019 15.2341 8.31167V11.0669C15.2342 11.2496 15.3068 11.4248 15.436 11.5539L17.3006 13.4185V14.511Z"/>
</mask>
<path d="M18.4764 12.6464L16.6118 10.7818V8.31167C16.6096 6.60467 15.9746 4.9591 14.8295 3.69316C13.6845 2.42721 12.1107 1.63081 10.4124 1.45797V0.0458984H9.03481V1.45797C7.33659 1.63081 5.76278 2.42721 4.6177 3.69316C3.47262 4.9591 2.83762 6.60467 2.83548 8.31167V10.7818L0.970865 12.6464C0.841679 12.7755 0.769082 12.9507 0.769043 13.1334V15.1998C0.769043 15.3825 0.841614 15.5577 0.970792 15.6869C1.09997 15.816 1.27517 15.8886 1.45786 15.8886H6.27955V16.4238C6.26457 17.2977 6.57258 18.1463 7.14456 18.8072C7.71653 19.468 8.51225 19.8945 9.37922 20.005C9.85807 20.0525 10.3416 19.9992 10.7986 19.8486C11.2556 19.698 11.6761 19.4534 12.0329 19.1306C12.3897 18.8078 12.675 18.4138 12.8705 17.9741C13.0659 17.5344 13.1672 17.0586 13.1677 16.5774V15.8886H17.9894C18.1721 15.8886 18.3473 15.816 18.4765 15.6869C18.6056 15.5577 18.6782 15.3825 18.6782 15.1998V13.1334C18.6782 12.9507 18.6056 12.7755 18.4764 12.6464ZM11.7901 16.5774C11.7901 17.1255 11.5724 17.6511 11.1848 18.0386C10.7973 18.4262 10.2717 18.6439 9.72362 18.6439C9.17557 18.6439 8.64996 18.4262 8.26243 18.0386C7.8749 17.6511 7.65718 17.1255 7.65718 16.5774V15.8886H11.7901V16.5774ZM17.3006 14.511H2.14667V13.4185L4.01129 11.5539C4.14048 11.4248 4.21307 11.2496 4.21311 11.0669V8.31167C4.21311 6.85019 4.79368 5.44857 5.8271 4.41515C6.86053 3.38172 8.26215 2.80115 9.72362 2.80115C11.1851 2.80115 12.5867 3.38172 13.6201 4.41515C14.6536 5.44857 15.2341 6.85019 15.2341 8.31167V11.0669C15.2342 11.2496 15.3068 11.4248 15.436 11.5539L17.3006 13.4185V14.511Z" fill="#76C3FF"/>
<path d="M18.4764 12.6464L17.0622 14.0606L17.0624 14.0608L18.4764 12.6464ZM16.6118 10.7818H14.6118V11.6102L15.1975 12.196L16.6118 10.7818ZM16.6118 8.31167H18.6118L18.6118 8.30916L16.6118 8.31167ZM10.4124 1.45797H8.41244V3.26474L10.2099 3.44769L10.4124 1.45797ZM10.4124 0.0458984H12.4124V-1.9541H10.4124V0.0458984ZM9.03481 0.0458984V-1.9541H7.03481V0.0458984H9.03481ZM9.03481 1.45797L9.23732 3.44769L11.0348 3.26474V1.45797H9.03481ZM2.83548 8.31167L0.835485 8.30916V8.31167H2.83548ZM2.83548 10.7818L4.2497 12.196L4.83548 11.6102V10.7818H2.83548ZM0.970865 12.6464L2.38487 14.0608L2.38508 14.0606L0.970865 12.6464ZM0.769043 13.1334L-1.23096 13.1329V13.1334H0.769043ZM0.769043 15.1998H-1.23096H0.769043ZM6.27955 15.8886H8.27955V13.8886H6.27955V15.8886ZM6.27955 16.4238L8.27926 16.4581L8.27955 16.441V16.4238H6.27955ZM9.37922 20.005L9.12641 21.9889L9.15409 21.9925L9.18185 21.9952L9.37922 20.005ZM13.1677 16.5774L15.1677 16.5797V16.5774H13.1677ZM13.1677 15.8886V13.8886H11.1677V15.8886H13.1677ZM18.6782 13.1334H20.6782V13.1329L18.6782 13.1334ZM11.7901 16.5774H13.7901H11.7901ZM7.65718 15.8886V13.8886H5.65718V15.8886H7.65718ZM11.7901 15.8886H13.7901V13.8886H11.7901V15.8886ZM17.3006 14.511V16.511H19.3006V14.511H17.3006ZM2.14667 14.511H0.146671V16.511H2.14667V14.511ZM2.14667 13.4185L0.732457 12.0043L0.146671 12.5901V13.4185H2.14667ZM4.01129 11.5539L2.59729 10.1395L2.59708 10.1397L4.01129 11.5539ZM4.21311 11.0669L6.21311 11.0673V11.0669H4.21311ZM9.72362 2.80115V0.801154V2.80115ZM15.2341 8.31167H17.2341H15.2341ZM15.2341 11.0669H13.2341V11.0673L15.2341 11.0669ZM15.436 11.5539L16.8502 10.1397L16.85 10.1395L15.436 11.5539ZM17.3006 13.4185H19.3006V12.5901L18.7148 12.0043L17.3006 13.4185ZM19.8906 11.2322L18.026 9.36754L15.1975 12.196L17.0622 14.0606L19.8906 11.2322ZM18.6118 10.7818V8.31167H14.6118V10.7818H18.6118ZM18.6118 8.30916C18.609 6.10723 17.7899 3.98453 16.3128 2.35152L13.3463 5.03479C14.1594 5.93368 14.6102 7.10212 14.6118 8.31417L18.6118 8.30916ZM16.3128 2.35152C14.8357 0.718517 12.8056 -0.308791 10.615 -0.531753L10.2099 3.44769C11.4157 3.57042 12.5332 4.1359 13.3463 5.03479L16.3128 2.35152ZM12.4124 1.45797V0.0458984H8.41244V1.45797H12.4124ZM10.4124 -1.9541H9.03481V2.0459H10.4124V-1.9541ZM7.03481 0.0458984V1.45797H11.0348V0.0458984H7.03481ZM8.8323 -0.531753C6.64168 -0.308791 4.61154 0.718518 3.13445 2.35152L6.10095 5.03479C6.91401 4.1359 8.0315 3.57042 9.23732 3.44769L8.8323 -0.531753ZM3.13445 2.35152C1.65736 3.98453 0.838242 6.10723 0.835486 8.30916L4.83548 8.31417C4.837 7.10212 5.28788 5.93368 6.10095 5.03479L3.13445 2.35152ZM0.835485 8.31167V10.7818H4.83548V8.31167H0.835485ZM1.42127 9.36754L-0.443348 11.2322L2.38508 14.0606L4.2497 12.196L1.42127 9.36754ZM-0.443135 11.2319C-0.947421 11.7361 -1.2308 12.4199 -1.23096 13.1329L2.76904 13.1338C2.76897 13.4815 2.63078 13.815 2.38487 14.0608L-0.443135 11.2319ZM-1.23096 13.1334V15.1998H2.76904V13.1334H-1.23096ZM-1.23096 15.1998C-1.23096 15.9129 -0.947673 16.5968 -0.443422 17.1011L2.38501 14.2727C2.6309 14.5186 2.76904 14.8521 2.76904 15.1998H-1.23096ZM-0.443422 17.1011C0.0608315 17.6053 0.744743 17.8886 1.45786 17.8886V13.8886C1.8056 13.8886 2.13911 14.0268 2.38501 14.2727L-0.443422 17.1011ZM1.45786 17.8886H6.27955V13.8886H1.45786V17.8886ZM4.27955 15.8886V16.4238H8.27955V15.8886H4.27955ZM4.27985 16.3895C4.25642 17.7559 4.73801 19.0828 5.63234 20.1161L8.65677 17.4983C8.40714 17.2099 8.27272 16.8395 8.27926 16.4581L4.27985 16.3895ZM5.63234 20.1161C6.52667 21.1493 7.77083 21.8162 9.12641 21.9889L9.63203 18.021C9.25366 17.9728 8.90639 17.7867 8.65677 17.4983L5.63234 20.1161ZM9.18185 21.9952C9.93844 22.0702 10.7024 21.9861 11.4245 21.7482L10.1727 17.9491C9.98075 18.0123 9.77769 18.0347 9.57658 18.0147L9.18185 21.9952ZM11.4245 21.7482C12.1466 21.5102 12.8109 21.1238 13.3747 20.6137L10.6911 17.6475C10.5412 17.7831 10.3646 17.8858 10.1727 17.9491L11.4245 21.7482ZM13.3747 20.6137C13.9385 20.1036 14.3893 19.4812 14.6981 18.7864L11.0429 17.1618C10.9608 17.3465 10.841 17.5119 10.6911 17.6475L13.3747 20.6137ZM14.6981 18.7864C15.0069 18.0917 15.1668 17.34 15.1677 16.5797L11.1677 16.5752C11.1675 16.7773 11.1249 16.9771 11.0429 17.1618L14.6981 18.7864ZM15.1677 16.5774V15.8886H11.1677V16.5774H15.1677ZM13.1677 17.8886H17.9894V13.8886H13.1677V17.8886ZM17.9894 17.8886C18.7025 17.8886 19.3864 17.6053 19.8907 17.1011L17.0622 14.2727C17.3081 14.0268 17.6416 13.8886 17.9894 13.8886V17.8886ZM19.8907 17.1011C20.3949 16.5968 20.6782 15.9129 20.6782 15.1998H16.6782C16.6782 14.8521 16.8163 14.5186 17.0622 14.2727L19.8907 17.1011ZM20.6782 15.1998V13.1334H16.6782V15.1998H20.6782ZM20.6782 13.1329C20.6781 12.4199 20.3947 11.7361 19.8904 11.2319L17.0624 14.0608C16.8165 13.815 16.6783 13.4815 16.6782 13.1338L20.6782 13.1329ZM9.79007 16.5774C9.79007 16.5951 9.78306 16.612 9.77061 16.6244L12.599 19.4528C13.3616 18.6902 13.7901 17.6559 13.7901 16.5774H9.79007ZM9.77061 16.6244C9.75815 16.6369 9.74125 16.6439 9.72362 16.6439V20.6439C10.8021 20.6439 11.8364 20.2155 12.599 19.4528L9.77061 16.6244ZM9.72362 16.6439C9.706 16.6439 9.6891 16.6369 9.67664 16.6244L6.84822 19.4528C7.61082 20.2155 8.64514 20.6439 9.72362 20.6439V16.6439ZM9.67664 16.6244C9.66418 16.612 9.65718 16.5951 9.65718 16.5774H5.65718C5.65718 17.6559 6.08561 18.6902 6.84822 19.4528L9.67664 16.6244ZM9.65718 16.5774V15.8886H5.65718V16.5774H9.65718ZM7.65718 17.8886H11.7901V13.8886H7.65718V17.8886ZM9.79007 15.8886V16.5774H13.7901V15.8886H9.79007ZM17.3006 12.511H2.14667V16.511H17.3006V12.511ZM4.14667 14.511V13.4185H0.146671V14.511H4.14667ZM3.56088 14.8327L5.4255 12.9681L2.59708 10.1397L0.732457 12.0043L3.56088 14.8327ZM5.42529 12.9683C5.92958 12.4642 6.21296 11.7804 6.21311 11.0673L2.21311 11.0665C2.21319 10.7188 2.35138 10.3853 2.59729 10.1395L5.42529 12.9683ZM6.21311 11.0669V8.31167H2.21311V11.0669H6.21311ZM6.21311 8.31167C6.21311 7.38062 6.58297 6.48771 7.24132 5.82936L4.41289 3.00093C3.0044 4.40943 2.21311 6.31976 2.21311 8.31167H6.21311ZM7.24132 5.82936C7.89967 5.17101 8.79258 4.80115 9.72362 4.80115V0.801154C7.73171 0.801154 5.82138 1.59244 4.41289 3.00093L7.24132 5.82936ZM9.72362 4.80115C10.6547 4.80115 11.5476 5.17101 12.2059 5.82936L15.0344 3.00093C13.6259 1.59244 11.7155 0.801154 9.72362 0.801154V4.80115ZM12.2059 5.82936C12.8643 6.48771 13.2341 7.38062 13.2341 8.31167H17.2341C17.2341 6.31976 16.4429 4.40943 15.0344 3.00093L12.2059 5.82936ZM13.2341 8.31167V11.0669H17.2341V8.31167H13.2341ZM13.2341 11.0673C13.2343 11.7804 13.5177 12.4642 14.022 12.9683L16.85 10.1395C17.0959 10.3853 17.2341 10.7188 17.2341 11.0665L13.2341 11.0673ZM14.0217 12.9681L15.8864 14.8327L18.7148 12.0043L16.8502 10.1397L14.0217 12.9681ZM15.3006 13.4185V14.511H19.3006V13.4185H15.3006Z" fill="#76C3FF" mask="url(#path-1-inside-1_121_109)"/>
</svg>
