<svg width="19" height="27" viewBox="0 0 19 27" fill="none" xmlns="http://www.w3.org/2000/svg">
<path d="M0.280273 0V26.8889H18.8957V0H0.280273ZM17.8615 25.8547H1.31446V1.03419H17.8615V25.8547ZM16.8273 9.30769V2.06838H2.34865V16.547H16.8273V9.30769ZM3.38284 3.10256H15.7931V8.2735H14.2418L13.7351 8.6665L13.1766 10.9314L11.6563 5.54325H10.6739L9.73275 8.2735H9.07087L8.56412 8.6665L8.00566 10.9314L6.4854 5.54325H5.45121L4.56181 8.2735H3.38284V3.10256ZM3.38284 15.5128V9.30769H4.93412L5.42019 8.95607L5.92694 7.43581L7.51959 13.0721H8.55378L9.48455 9.32838H10.1154L10.6015 8.97675L11.1082 7.4565L12.6905 13.0721H13.7247L14.6555 9.32838H15.7931V15.5335L3.38284 15.5128ZM13.7247 20.6838H16.8273V17.5812H13.7247V20.6838ZM14.7589 18.6154H15.7931V19.6496H14.7589V18.6154ZM13.7247 24.8205H16.8273V21.7179H13.7247V24.8205ZM14.7589 22.7521H15.7931V23.7863H14.7589V22.7521ZM9.58797 20.6838H12.6905V17.5812H9.58797V20.6838ZM10.6222 18.6154H11.6563V19.6496H10.6222V18.6154ZM9.58797 24.8205H12.6905V21.7179H9.58797V24.8205ZM10.6222 22.7521H11.6563V23.7863H10.6222V22.7521ZM8.55378 19.6496H2.34865V18.6154H8.55378V19.6496ZM8.55378 23.7863H2.34865V22.7521H8.55378V23.7863Z" fill="#616161"/>
</svg>
