<svg width="19" height="21" viewBox="0 0 19 21" fill="none" xmlns="http://www.w3.org/2000/svg">
<path d="M7.5495 0H1.08797C0.873784 0 0.668252 0.0850985 0.516812 0.236538C0.365372 0.387978 0.280273 0.593511 0.280273 0.807692V12.9231C0.280273 13.1373 0.365372 13.3428 0.516812 13.4942C0.668252 13.6457 0.873784 13.7308 1.08797 13.7308H7.5495C7.76369 13.7308 7.96922 13.6457 8.12066 13.4942C8.2721 13.3428 8.3572 13.1373 8.3572 12.9231V0.807692C8.3572 0.593511 8.2721 0.387978 8.12066 0.236538C7.96922 0.0850985 7.76369 0 7.5495 0ZM6.74181 12.1154H1.89566V1.61538H6.74181V12.1154Z" fill="#616161"/>
<path d="M7.5495 14.5385H1.08797C0.873784 14.5385 0.668252 14.6236 0.516812 14.775C0.365372 14.9264 0.280273 15.132 0.280273 15.3461V20.1923C0.280273 20.4065 0.365372 20.612 0.516812 20.7635C0.668252 20.9149 0.873784 21 1.08797 21H7.5495C7.76369 21 7.96922 20.9149 8.12066 20.7635C8.2721 20.612 8.3572 20.4065 8.3572 20.1923V15.3461C8.3572 15.132 8.2721 14.9264 8.12066 14.775C7.96922 14.6236 7.76369 14.5385 7.5495 14.5385ZM6.74181 19.3846H1.89566V16.1538H6.74181V19.3846Z" fill="#616161"/>
<path d="M17.2418 7.26923H10.7803C10.5661 7.26923 10.3606 7.35432 10.2091 7.50576C10.0577 7.6572 9.9726 7.86274 9.9726 8.07692V20.1923C9.9726 20.4065 10.0577 20.612 10.2091 20.7635C10.3606 20.9149 10.5661 21 10.7803 21H17.2418C17.456 21 17.6615 20.9149 17.813 20.7635C17.9644 20.612 18.0495 20.4065 18.0495 20.1923V8.07692C18.0495 7.86274 17.9644 7.6572 17.813 7.50576C17.6615 7.35432 17.456 7.26923 17.2418 7.26923ZM16.4341 19.3846H11.588V8.88461H16.4341V19.3846Z" fill="#616161"/>
<path d="M17.2418 0H10.7803C10.5661 0 10.3606 0.0850985 10.2091 0.236538C10.0577 0.387978 9.9726 0.593511 9.9726 0.807692V5.65385C9.9726 5.86803 10.0577 6.07356 10.2091 6.225C10.3606 6.37644 10.5661 6.46154 10.7803 6.46154H17.2418C17.456 6.46154 17.6615 6.37644 17.813 6.225C17.9644 6.07356 18.0495 5.86803 18.0495 5.65385V0.807692C18.0495 0.593511 17.9644 0.387978 17.813 0.236538C17.6615 0.0850985 17.456 0 17.2418 0ZM16.4341 4.84615H11.588V1.61538H16.4341V4.84615Z" fill="#616161"/>
</svg>
