<svg width="24" height="25" viewBox="0 0 24 25" fill="none" xmlns="http://www.w3.org/2000/svg">
<g clip-path="url(#clip0_2_310)">
<path d="M14.12 14.1307C13.8454 14.4255 13.5141 14.6619 13.1462 14.8259C12.7782 14.9898 12.3809 15.078 11.9781 15.0851C11.5753 15.0922 11.1752 15.0181 10.8016 14.8672C10.4281 14.7163 10.0887 14.4918 9.80385 14.2069C9.51897 13.922 9.29439 13.5827 9.14351 13.2091C8.99262 12.8356 8.91853 12.4355 8.92563 12.0326C8.93274 11.6298 9.02091 11.2326 9.18488 10.8646C9.34884 10.4966 9.58525 10.1654 9.88 9.89074M17.94 17.9507C16.2306 19.2537 14.1491 19.9756 12 20.0107C5 20.0107 1 12.0107 1 12.0107C2.24389 9.69263 3.96914 7.66734 6.06 6.07074L17.94 17.9507ZM9.9 4.25074C10.5883 4.08962 11.2931 4.00908 12 4.01074C19 4.01074 23 12.0107 23 12.0107C22.393 13.1463 21.6691 14.2155 20.84 15.2007L9.9 4.25074Z" stroke="white" stroke-width="2" stroke-linecap="round" stroke-linejoin="round"/>
<path d="M1 1.01074L23 23.0107" stroke="white" stroke-width="2" stroke-linecap="round" stroke-linejoin="round"/>
</g>
<defs>
<clipPath id="clip0_2_310">
<rect width="24" height="24" fill="white" transform="translate(0 0.0107422)"/>
</clipPath>
</defs>
</svg>
