<svg width="23" height="23" viewBox="0 0 23 23" fill="none" xmlns="http://www.w3.org/2000/svg">
<path d="M16.438 13.8472H15.3991L15.0309 13.5076C16.3196 12.0736 17.0955 10.212 17.0955 8.18684C17.0955 3.67112 13.2687 0.0107422 8.54774 0.0107422C3.82676 0.0107422 0 3.67112 0 8.18684C0 12.7026 3.82676 16.3629 8.54774 16.3629C10.665 16.3629 12.6112 15.6208 14.1103 14.3881L14.4654 14.7403V15.734L21.0406 22.0107L23 20.1365L16.438 13.8472ZM8.54774 13.8472C5.2733 13.8472 2.63007 11.3189 2.63007 8.18684C2.63007 5.05477 5.2733 2.52647 8.54774 2.52647C11.8222 2.52647 14.4654 5.05477 14.4654 8.18684C14.4654 11.3189 11.8222 13.8472 8.54774 13.8472Z" fill="white"/>
</svg>
