<svg width="25" height="25" viewBox="0 0 25 25" fill="none" xmlns="http://www.w3.org/2000/svg">
<path d="M13.9501 2.22903C13.9501 3.20219 13.1629 4.5312 12.1898 4.5312C11.2166 4.5312 10.4294 3.19948 10.4294 2.22903C10.4294 1.25587 11.2166 0.468696 12.1898 0.468696C13.1603 0.466 13.9501 1.25587 13.9501 2.22903Z" fill="#616161"/>
<path d="M13.4784 2.22896C13.4784 2.2721 13.4757 2.31523 13.473 2.35836C13.473 2.37723 13.4649 2.50393 13.4676 2.42845C13.4703 2.36106 13.4595 2.47697 13.4541 2.50124C13.4433 2.55246 13.4326 2.60368 13.4191 2.6549C13.3975 2.74116 13.3706 2.82743 13.3409 2.91099C13.3274 2.95143 13.3112 2.98917 13.2951 3.0296C13.2762 3.08083 13.3059 3.00534 13.3086 2.99995C13.2924 3.0323 13.2789 3.06735 13.2627 3.09969C13.1819 3.26413 13.0875 3.41779 12.9824 3.56875C13.0363 3.49327 12.9824 3.56875 12.9554 3.59841C12.9258 3.63345 12.8934 3.6685 12.8611 3.70354C12.8341 3.73319 12.8044 3.76015 12.7748 3.78981C12.7586 3.80598 12.7424 3.81946 12.7236 3.83563C12.7128 3.84642 12.64 3.91111 12.6939 3.86259C12.7397 3.82215 12.6535 3.89224 12.6346 3.90303C12.6023 3.92459 12.5699 3.94346 12.5376 3.96233C12.5187 3.97312 12.4998 3.9812 12.4809 3.99199C12.4621 4.00277 12.4136 4.04051 12.4648 4.00277C12.5079 3.97042 12.4836 3.99468 12.4621 4.00277C12.4378 4.01086 12.4136 4.02164 12.3866 4.02703C12.3516 4.03781 12.3165 4.0459 12.2815 4.05399C12.1952 4.07825 12.3111 4.04321 12.3138 4.05129C12.3138 4.05129 12.2599 4.05668 12.2518 4.05668C12.2141 4.05938 12.179 4.05938 12.1413 4.05668C12.1197 4.05668 12.0982 4.05129 12.0793 4.05129C12.0227 4.0486 12.1817 4.07555 12.0955 4.05129C12.0469 4.03781 11.9175 4.02703 11.8852 3.98659C11.9095 4.01355 11.9634 4.02433 11.9095 3.99468C11.8906 3.9839 11.8717 3.97581 11.8528 3.96503C11.8151 3.94346 11.7774 3.9219 11.7423 3.89763C11.7154 3.88146 11.6156 3.7898 11.7046 3.87337C11.6749 3.84641 11.6426 3.82215 11.6156 3.7952C11.5482 3.73319 11.4835 3.6631 11.4215 3.59301C11.3946 3.56066 11.3433 3.48788 11.3946 3.56336C11.3676 3.52292 11.338 3.48518 11.311 3.44475C11.2571 3.36388 11.2086 3.28031 11.1627 3.19404C11.1439 3.1563 11.125 3.11857 11.1061 3.07813C11.0873 3.04038 11.0522 2.95412 11.0873 3.04038C11.0522 2.95142 11.0172 2.85977 10.9902 2.76811C10.9659 2.68455 10.9444 2.59828 10.9255 2.51202C10.9174 2.47697 10.9039 2.43115 10.9066 2.39341C10.8985 2.49046 10.9147 2.45541 10.912 2.42036C10.9093 2.39341 10.9066 2.36645 10.9066 2.33949C10.9012 2.25053 10.9039 2.16427 10.9093 2.078C10.9093 2.06722 10.9147 2.00253 10.9093 2.06722C10.9039 2.13462 10.912 2.05644 10.9147 2.04026C10.9255 1.98635 10.9363 1.93243 10.9525 1.88121C10.9632 1.84078 10.9767 1.80034 10.9902 1.7626C10.9956 1.74643 11.0037 1.73025 11.0091 1.71138C10.9794 1.80573 10.9929 1.74912 11.0037 1.72486C11.0468 1.64129 11.0899 1.55772 11.1439 1.47954C11.1573 1.46067 11.1708 1.4418 11.1843 1.42293C11.1762 1.43641 11.1196 1.49841 11.1762 1.43641C11.2032 1.40676 11.2301 1.37441 11.2571 1.34475C11.2867 1.3151 11.3137 1.28545 11.346 1.25849C11.3622 1.24232 11.3811 1.22884 11.4 1.21266C11.4647 1.15336 11.3541 1.23692 11.4027 1.20997C11.4754 1.16953 11.5401 1.11831 11.6129 1.08057L11.6776 1.04822C11.6911 1.04013 11.7639 1.01318 11.7019 1.03474C11.6453 1.05631 11.7019 1.03474 11.7127 1.03205C11.7423 1.02396 11.7693 1.01318 11.7989 1.00239C11.8852 0.975436 11.9742 0.956565 12.0631 0.940391C11.9661 0.956566 12.0604 0.943087 12.1036 0.940391C12.1602 0.937696 12.2168 0.937696 12.2734 0.940391C12.3165 0.943087 12.4378 0.959262 12.3327 0.940391C12.3866 0.948479 12.4405 0.959262 12.4944 0.972741C12.5457 0.986219 12.5996 0.999698 12.6508 1.01857C12.667 1.02396 12.6831 1.03205 12.702 1.03744C12.7559 1.04822 12.6265 0.999698 12.7047 1.03744C12.7937 1.08327 12.8799 1.13179 12.9662 1.18571C12.9797 1.19379 13.0417 1.23962 12.9905 1.20188C12.9365 1.16144 13.0147 1.22345 13.0255 1.23153C13.0605 1.26119 13.0956 1.29353 13.1279 1.32858C13.1657 1.36632 13.198 1.40945 13.2331 1.44719C13.2789 1.49302 13.1926 1.3798 13.225 1.43641C13.2385 1.46067 13.26 1.48493 13.2762 1.5092C13.3032 1.54963 13.3247 1.59007 13.349 1.63051C13.3598 1.65207 13.3706 1.67364 13.3813 1.69251C13.3867 1.70599 13.4272 1.79764 13.4002 1.73294C13.3786 1.67633 13.4002 1.73294 13.4029 1.74373C13.411 1.77338 13.4218 1.80034 13.4326 1.82999C13.4487 1.88121 13.4622 1.93512 13.473 1.98635C13.4784 2.01061 13.4811 2.03487 13.4865 2.05913C13.4973 2.11574 13.4865 2.078 13.4838 2.04296C13.4703 2.10226 13.4757 2.16427 13.4784 2.22896C13.4811 2.47697 13.6941 2.71151 13.9501 2.70072C14.2035 2.68994 14.4246 2.49315 14.4219 2.22896C14.4111 1.21805 13.7129 0.293391 12.7182 0.0588998C11.7423 -0.170238 10.6802 0.28265 10.2165 1.18305C9.76366 2.06186 9.96584 3.12128 10.4969 3.92191C10.7449 4.29663 11.0765 4.65245 11.4943 4.83849C11.9661 5.05145 12.4648 5.04336 12.9311 4.81961C13.3894 4.59856 13.7534 4.17263 13.9986 3.73594C14.2547 3.27766 14.4192 2.75469 14.4246 2.22902C14.4273 1.98102 14.2062 1.74648 13.9528 1.75727C13.6913 1.76805 13.4811 1.96214 13.4784 2.22902L13.4784 2.22896Z" fill="#616161"/>
<path d="M15.7292 7.5047V8.9146H8.66632V7.5047C8.66632 6.50728 9.46966 5.7066 10.4671 5.7066H10.8903L12.1951 7.21894L13.489 5.7066H13.9123C14.9097 5.7066 15.7292 6.50723 15.7292 7.5047H15.7292Z" fill="#616161"/>
<path d="M15.2466 7.50483V8.91202C15.4029 8.75567 15.562 8.59662 15.7183 8.44026H13.3299H9.52617H8.66081L9.13257 8.91202V7.56684V7.50753C9.13257 7.48058 9.13257 7.45631 9.13526 7.42936C9.13526 7.4051 9.13796 7.38084 9.14066 7.35388C9.14335 7.32692 9.17031 7.21909 9.14066 7.33231C9.16492 7.23796 9.1784 7.14361 9.21075 7.05196C9.22153 7.01691 9.27544 6.90369 9.22962 6.99804C9.25657 6.94412 9.28084 6.8929 9.31049 6.83899C9.33475 6.79855 9.35901 6.75811 9.38597 6.72038C9.39945 6.7015 9.41293 6.68264 9.4264 6.66377C9.3698 6.74733 9.40214 6.69342 9.41832 6.67725C9.4911 6.59907 9.56119 6.52359 9.64207 6.4535C9.70407 6.39689 9.64207 6.45349 9.62859 6.46158C9.64746 6.4481 9.66633 6.43462 9.6852 6.42115C9.72294 6.39419 9.76337 6.36993 9.80381 6.34567C9.84964 6.31871 9.90355 6.29984 9.94668 6.27288C10.0006 6.23783 9.8712 6.29714 9.9332 6.27827C9.96286 6.27018 9.98981 6.25671 10.0168 6.24862C10.0734 6.22975 10.1327 6.21357 10.1893 6.20009C10.2136 6.1947 10.2378 6.18931 10.2621 6.18662C10.3807 6.15966 10.1596 6.19201 10.2837 6.18122C10.3564 6.17583 10.4292 6.17314 10.502 6.17044H10.8929C10.7824 6.12461 10.6718 6.07878 10.5586 6.03296C10.9926 6.53708 11.4294 7.04116 11.8634 7.54529C12.0224 7.72861 12.3729 7.72861 12.5292 7.54529C12.9606 7.04116 13.3919 6.53708 13.8232 6.03296C13.7127 6.07878 13.6022 6.12461 13.4889 6.17044C13.6291 6.17044 13.7693 6.16774 13.9122 6.17044C13.9877 6.17044 14.0604 6.17583 14.1359 6.18392C14.0146 6.17044 14.1278 6.18662 14.1548 6.19201C14.1898 6.20009 14.2249 6.20818 14.2599 6.21627C14.33 6.23514 14.3974 6.2594 14.4648 6.28636C14.357 6.24323 14.4567 6.28636 14.481 6.29714C14.5187 6.31601 14.5538 6.33488 14.5888 6.35645C14.6185 6.37532 14.6481 6.39419 14.6778 6.41306C14.6886 6.42114 14.7829 6.49123 14.729 6.4481C14.6751 6.40497 14.7667 6.48045 14.7748 6.48854C14.8018 6.5128 14.826 6.53706 14.8503 6.56133C14.8746 6.58559 14.8988 6.61255 14.9231 6.6368C14.9312 6.64759 15.0066 6.73924 14.9635 6.68263C14.9204 6.62872 14.9905 6.72307 14.9986 6.73385C15.0174 6.76351 15.0363 6.79316 15.0552 6.82281C15.074 6.85247 15.0902 6.88482 15.1064 6.91717C15.1118 6.93065 15.1657 7.03578 15.136 6.97378C15.1064 6.91178 15.1522 7.01961 15.1576 7.03308C15.1684 7.06813 15.1792 7.10048 15.19 7.13552C15.2007 7.17056 15.2088 7.20561 15.2169 7.24065C15.2196 7.25413 15.2466 7.37544 15.2304 7.30535C15.2169 7.23526 15.2358 7.35657 15.2358 7.37275C15.2466 7.41858 15.2466 7.46171 15.2466 7.50484C15.2493 7.75285 15.4622 7.98738 15.7183 7.9766C15.9717 7.96581 16.1928 7.76903 16.1901 7.50484C16.1766 6.2513 15.1549 5.235 13.9014 5.22421C13.7639 5.22421 13.6237 5.21612 13.4862 5.22421C13.276 5.23499 13.1762 5.33474 13.0576 5.47491C12.8365 5.73371 12.6155 5.9925 12.3944 6.25129C12.2165 6.45886 12.0386 6.66644 11.8607 6.87402H12.5266C12.292 6.60175 12.0575 6.32947 11.823 6.05722C11.672 5.882 11.5211 5.70947 11.3701 5.53426C11.2272 5.36713 11.1248 5.23503 10.8714 5.22425C10.5991 5.21077 10.3134 5.21886 10.0438 5.26469C9.64482 5.33208 9.27821 5.52617 8.97086 5.78498C8.4344 6.23517 8.1864 6.91179 8.1864 7.59924V8.91209C8.1864 9.16818 8.40206 9.38385 8.65816 9.38385H11.0466H14.8503H15.7157C15.9718 9.38385 16.1874 9.16818 16.1874 8.91209V7.5049C16.1874 7.25689 15.9718 7.02235 15.7157 7.03314C15.4623 7.04662 15.2466 7.24071 15.2466 7.5049L15.2466 7.50483Z" fill="#616161"/>
<path d="M21.5793 15.1739V13.0523C21.5793 12.6965 21.2774 12.3919 20.9189 12.3919H19.1774H14.999H9.97394H5.60679C4.90051 12.3919 4.19423 12.3784 3.48794 12.3919H3.45829C3.10245 12.3919 2.79785 12.6938 2.79785 13.0523V15.1739C2.79785 15.5189 3.10247 15.8505 3.45829 15.8343C3.81683 15.8181 4.11873 15.5432 4.11873 15.1739V13.0523C3.89768 13.2733 3.67932 13.4917 3.45829 13.7127H5.19975H9.37819H14.4032H18.7704C19.4766 13.7127 20.1829 13.7343 20.8892 13.7127H20.9189C20.6978 13.4917 20.4794 13.2733 20.2584 13.0523V15.1739C20.2584 15.5189 20.563 15.8505 20.9189 15.8343C21.2747 15.8181 21.5793 15.5432 21.5793 15.1739Z" fill="#616161"/>
<path d="M12.8504 15.174V11.4862V10.9578C12.8504 10.6128 12.5458 10.2812 12.19 10.2974C11.8314 10.3136 11.5295 10.5885 11.5295 10.9578V14.6456V15.174C11.5295 15.519 11.8342 15.8506 12.19 15.8344C12.5485 15.8182 12.8504 15.5433 12.8504 15.174Z" fill="#616161"/>
<path d="M4.81401 18.6783C4.81401 19.425 4.20745 20.4467 3.46075 20.4467C2.71404 20.4467 2.10748 19.425 2.10748 18.6783C2.10748 17.9316 2.71404 17.325 3.46075 17.325C4.20745 17.325 4.81401 17.9316 4.81401 18.6783Z" fill="#616161"/>
<path d="M4.34228 18.6783C4.34228 18.7106 4.34228 18.743 4.33958 18.7753C4.33689 18.8104 4.35037 18.9047 4.34228 18.7807C4.34497 18.8319 4.32071 18.8966 4.30993 18.9479C4.29376 19.0179 4.27219 19.0853 4.25062 19.1527C4.23984 19.1878 4.22367 19.2201 4.21288 19.2552C4.25062 19.1446 4.21288 19.2552 4.2021 19.2767C4.14549 19.398 4.0754 19.5086 3.99992 19.6218C3.93522 19.7215 4.06462 19.5517 3.98644 19.6407C3.96218 19.6676 3.94061 19.6946 3.91635 19.7188C3.87052 19.7701 3.81661 19.8132 3.76808 19.859C3.85704 19.7781 3.77886 19.8509 3.7573 19.8644C3.73034 19.8833 3.70338 19.8995 3.67373 19.9156C3.66025 19.9237 3.60094 19.9642 3.58747 19.9588C3.58477 19.9588 3.70069 19.921 3.61173 19.9453C3.58207 19.9534 3.54973 19.9615 3.52277 19.9695C3.42303 20.0019 3.6306 19.9695 3.52546 19.9722C3.49311 19.9722 3.46346 19.9749 3.43111 19.9749C3.42033 19.9749 3.40954 19.9749 3.39876 19.9722C3.34754 19.9668 3.35832 19.9695 3.43111 19.9776C3.43111 19.9776 3.34754 19.9561 3.33945 19.9561C3.32867 19.9534 3.32058 19.9507 3.3098 19.9453C3.26128 19.9264 3.26936 19.9318 3.33406 19.9588C3.30441 19.9642 3.22084 19.8995 3.19388 19.8833C3.16692 19.8644 3.13996 19.8455 3.11301 19.8267C3.21275 19.8995 3.12379 19.8321 3.10492 19.8132C3.0537 19.7674 3.00518 19.7161 2.95935 19.6649C2.94587 19.6488 2.87578 19.5544 2.94318 19.6488C2.92161 19.6191 2.90004 19.5895 2.88117 19.5598C2.84883 19.5086 2.81648 19.4574 2.78682 19.4034C2.75178 19.3387 2.71943 19.274 2.68977 19.2066C2.7329 19.3037 2.70055 19.2282 2.68977 19.2013C2.67629 19.1608 2.66281 19.1231 2.64934 19.0826C2.62777 19.0153 2.61159 18.9479 2.59811 18.8778C2.59272 18.8508 2.59003 18.8212 2.58194 18.7942C2.56576 18.7268 2.59003 18.9128 2.58463 18.805C2.58194 18.7376 2.57655 18.6702 2.58194 18.6001C2.58194 18.5947 2.59811 18.4734 2.58463 18.5516C2.57385 18.6244 2.60081 18.4842 2.6035 18.4707C2.61159 18.4357 2.62238 18.4006 2.63316 18.3656C2.64125 18.3413 2.69246 18.2389 2.63855 18.3467C2.66551 18.2928 2.69247 18.2416 2.72212 18.1904C2.74099 18.1607 2.76255 18.131 2.78142 18.1041C2.71133 18.2011 2.78142 18.1068 2.7976 18.0906C2.81377 18.0744 2.82995 18.0556 2.84612 18.0394C2.86499 18.0232 2.98361 17.9262 2.88386 17.999C2.94047 17.9558 2.99978 17.9181 3.06178 17.8857L3.12648 17.8534C3.02135 17.9073 3.12379 17.8561 3.14535 17.848C3.21544 17.8237 3.28553 17.8129 3.35562 17.7941C3.25857 17.8183 3.31249 17.7995 3.33945 17.7968C3.39067 17.7941 3.43919 17.7914 3.49041 17.7914C3.52815 17.7914 3.56589 17.7968 3.60363 17.7995C3.47963 17.7887 3.61172 17.8049 3.64137 17.8102C3.67103 17.8183 3.70068 17.8237 3.72764 17.8345C3.75459 17.8426 3.89208 17.9073 3.78155 17.8507C3.84625 17.883 3.90825 17.9154 3.96756 17.9558C3.98913 17.9693 4.07 18.0448 3.98373 17.9666C4.01878 17.999 4.05382 18.0286 4.08617 18.061C4.11043 18.0852 4.132 18.1122 4.15626 18.1391C4.10504 18.0825 4.13739 18.1149 4.16705 18.1553C4.18592 18.185 4.20479 18.2146 4.22365 18.247C4.23713 18.2685 4.29913 18.4114 4.25331 18.2955C4.28027 18.3629 4.30183 18.4303 4.31801 18.5031C4.3234 18.5273 4.33688 18.6459 4.32609 18.5219C4.33688 18.5785 4.33957 18.6271 4.34227 18.6783C4.34496 18.9236 4.55793 19.1608 4.81402 19.15C5.06742 19.1393 5.28848 18.9425 5.28578 18.6783C5.275 17.8561 4.71161 17.0986 3.90018 16.9072C3.09955 16.7185 2.21265 17.0905 1.84329 17.8399C1.49284 18.5489 1.64111 19.3899 2.06974 20.0343C2.27462 20.3416 2.54689 20.6327 2.88925 20.7837C3.28553 20.9562 3.68722 20.9508 4.07807 20.7648C4.44739 20.5896 4.74393 20.2472 4.94072 19.8941C5.14829 19.5248 5.28038 19.1015 5.28577 18.6756C5.28847 18.4276 5.06741 18.193 4.81401 18.2038C4.55522 18.2173 4.34495 18.4141 4.34226 18.6783L4.34228 18.6783Z" fill="#616161"/>
<path d="M6.15923 23.1266V24.1995H0.740845V23.1266C0.740845 22.361 1.37437 21.7464 2.13995 21.7464H2.46344L3.46628 22.8436L4.46103 21.7464H4.78452C5.55011 21.7464 6.15938 22.3583 6.15938 23.1266H6.15923Z" fill="#616161"/>
<path d="M5.70129 23.1266V24.2076C5.85764 24.0513 6.01669 23.8922 6.17305 23.7359H4.33724H1.42585H0.751901L1.22366 24.2076V23.1832V23.1293V23.0889C1.22366 23.07 1.22635 23.0512 1.22635 23.0323C1.22635 23.0188 1.23714 22.9379 1.22635 23.0026C1.21827 23.07 1.23983 22.9406 1.24522 22.9218C1.25331 22.8867 1.26409 22.8517 1.27488 22.8193C1.28836 22.7762 1.31531 22.725 1.27757 22.8004C1.29914 22.7573 1.31801 22.7169 1.34227 22.6737C1.36114 22.6441 1.38001 22.6144 1.39888 22.5848C1.44471 22.5093 1.35036 22.6333 1.40966 22.5686C1.46358 22.5066 1.52019 22.45 1.58219 22.3961C1.64689 22.3368 1.52289 22.4311 1.59837 22.3853C1.62802 22.3664 1.65767 22.3476 1.68733 22.3287C1.72237 22.3071 1.76281 22.2936 1.79785 22.2721C1.84368 22.2451 1.7709 22.2829 1.76551 22.2856C1.78707 22.2775 1.81133 22.2694 1.8329 22.2613C1.87873 22.2451 1.92456 22.2343 1.97308 22.2236C1.99195 22.2209 2.00813 22.2182 2.027 22.2128C2.0917 22.1966 1.94343 22.2182 2.01082 22.2155C2.06743 22.2128 2.12135 22.2101 2.17796 22.2101H2.46641C2.35588 22.1643 2.24536 22.1184 2.13214 22.0726C2.46641 22.4392 2.80066 22.8031 3.13497 23.1698C3.29941 23.3504 3.63639 23.3531 3.80083 23.1698C4.13241 22.8032 4.46398 22.4392 4.79558 22.0726C4.68506 22.1184 4.57453 22.1643 4.46131 22.2101H4.7848C4.83603 22.2101 4.88455 22.2155 4.93577 22.2182C4.82524 22.2101 4.96812 22.2263 5.00855 22.237C5.05978 22.2505 5.11099 22.2694 5.16221 22.2856C5.06247 22.2559 5.13795 22.2748 5.16221 22.2883C5.18917 22.3017 5.21343 22.3152 5.24039 22.3287C5.26195 22.3395 5.28082 22.353 5.29969 22.3664C5.31048 22.3745 5.39674 22.4284 5.33743 22.3907C5.28621 22.3557 5.34822 22.3988 5.359 22.4096C5.38057 22.4284 5.40213 22.4473 5.4237 22.4689C5.46144 22.5066 5.49379 22.547 5.52883 22.5848C5.57197 22.6279 5.47222 22.4958 5.52883 22.5875C5.54231 22.6064 5.55579 22.6252 5.56657 22.6468C5.59623 22.698 5.62318 22.7492 5.64744 22.8031C5.59892 22.7034 5.65553 22.8382 5.66632 22.8759C5.68249 22.9272 5.69058 22.9811 5.70136 23.035C5.69327 22.9999 5.69597 22.9595 5.69866 23.0188C5.69866 23.0512 5.70136 23.0889 5.70136 23.1266C5.70406 23.372 5.91702 23.6092 6.17312 23.5984C6.42652 23.5876 6.64757 23.3908 6.64487 23.1266C6.6314 22.1076 5.80648 21.2773 4.78482 21.2666C4.67968 21.2666 4.57455 21.2612 4.46942 21.2666C4.30498 21.2747 4.17828 21.3448 4.07314 21.4634C3.90331 21.6494 3.73617 21.8381 3.56635 22.0241C3.42078 22.1831 3.2779 22.3449 3.13233 22.5039H3.79819C3.6041 22.291 3.41 22.078 3.21593 21.865C3.1054 21.7437 2.99488 21.6224 2.88166 21.4984C2.75226 21.3555 2.61478 21.2666 2.40721 21.2666C2.17537 21.2666 1.94893 21.2639 1.7198 21.3151C1.40979 21.3825 1.12404 21.5442 0.886835 21.7518C0.471687 22.1184 0.280273 22.6576 0.280273 23.2022V24.205C0.280273 24.4611 0.495934 24.6767 0.752031 24.6767H2.58783H5.49923H6.17318C6.42927 24.6767 6.64493 24.4611 6.64493 24.205V23.124C6.64493 22.876 6.42927 22.6414 6.17318 22.6522C5.91708 22.6657 5.70142 22.8625 5.70142 23.1267L5.70129 23.1266Z" fill="#616161"/>
<path d="M13.5538 18.6783C13.5538 19.425 12.9473 20.4467 12.2006 20.4467C11.4539 20.4467 10.8473 19.425 10.8473 18.6783C10.8473 17.9316 11.4539 17.325 12.2006 17.325C12.95 17.325 13.5538 17.9316 13.5538 18.6783Z" fill="#616161"/>
<path d="M13.082 18.6783C13.082 18.7106 13.082 18.743 13.0793 18.7753C13.0766 18.8104 13.0901 18.9047 13.082 18.7807C13.0847 18.8319 13.0605 18.8966 13.0497 18.9479C13.0335 19.0179 13.0119 19.0853 12.9904 19.1527C12.9796 19.1878 12.9634 19.2201 12.9526 19.2552C12.9904 19.1446 12.9526 19.2552 12.9418 19.2767C12.8852 19.398 12.8151 19.5086 12.7397 19.6218C12.675 19.7215 12.8044 19.5517 12.7262 19.6407C12.7019 19.6676 12.6804 19.6946 12.6561 19.7188C12.6103 19.7701 12.5564 19.8132 12.5078 19.859C12.5968 19.7781 12.5186 19.8509 12.497 19.8644C12.4701 19.8833 12.4431 19.8995 12.4135 19.9156C12.4 19.9237 12.3407 19.9642 12.3272 19.9588C12.3245 19.9588 12.4404 19.921 12.3515 19.9453C12.3218 19.9534 12.2895 19.9615 12.2625 19.9695C12.1628 20.0019 12.3703 19.9695 12.2652 19.9722C12.2329 19.9722 12.2032 19.9749 12.1709 19.9749C12.1601 19.9749 12.1493 19.9749 12.1385 19.9722C12.0873 19.9668 12.0981 19.9695 12.1709 19.9776C12.1709 19.9776 12.0873 19.9561 12.0792 19.9561C12.0684 19.9534 12.0603 19.9507 12.0495 19.9453C12.001 19.9264 12.0091 19.9318 12.0738 19.9588C12.0442 19.9642 11.9606 19.8995 11.9336 19.8833C11.9067 19.8644 11.8797 19.8455 11.8528 19.8267C11.9525 19.8995 11.8635 19.8321 11.8447 19.8132C11.7934 19.7674 11.7449 19.7161 11.6991 19.6649C11.6856 19.6488 11.6155 19.5544 11.6829 19.6488C11.6614 19.6191 11.6398 19.5895 11.6209 19.5598C11.5886 19.5086 11.5562 19.4574 11.5266 19.4034C11.4915 19.3387 11.4592 19.274 11.4295 19.2066C11.4726 19.3037 11.4403 19.2282 11.4295 19.2013C11.416 19.1608 11.4026 19.1231 11.3891 19.0826C11.3675 19.0153 11.3513 18.9479 11.3379 18.8778C11.3325 18.8508 11.3298 18.8212 11.3217 18.7942C11.3055 18.7268 11.3298 18.9128 11.3244 18.805C11.3217 18.7376 11.3163 18.6702 11.3217 18.6001C11.3217 18.5947 11.3379 18.4734 11.3244 18.5516C11.3136 18.6244 11.3406 18.4842 11.3432 18.4707C11.3513 18.4357 11.3621 18.4006 11.3729 18.3656C11.381 18.3413 11.4322 18.2389 11.3783 18.3467C11.4053 18.2928 11.4322 18.2416 11.4619 18.1904C11.4807 18.1607 11.5023 18.131 11.5212 18.1041C11.4511 18.2011 11.5212 18.1068 11.5373 18.0906C11.5535 18.0744 11.5697 18.0556 11.5859 18.0394C11.6047 18.0232 11.7234 17.9262 11.6236 17.999C11.6802 17.9558 11.7395 17.9181 11.8015 17.8857L11.8662 17.8534C11.7611 17.9073 11.8635 17.8561 11.8851 17.848C11.9552 17.8237 12.0253 17.8129 12.0954 17.7941C11.9983 17.8183 12.0522 17.7995 12.0792 17.7968C12.1304 17.7941 12.1789 17.7914 12.2302 17.7914C12.2679 17.7914 12.3056 17.7968 12.3434 17.7995C12.2194 17.7887 12.3515 17.8049 12.3811 17.8102C12.4108 17.8183 12.4404 17.8237 12.4674 17.8345C12.4943 17.8426 12.6318 17.9073 12.5213 17.8507C12.586 17.883 12.648 17.9154 12.7073 17.9558C12.7289 17.9693 12.8097 18.0448 12.7235 17.9666C12.7585 17.999 12.7936 18.0286 12.8259 18.061C12.8502 18.0852 12.8717 18.1122 12.896 18.1391C12.8448 18.0825 12.8771 18.1149 12.9068 18.1553C12.9257 18.185 12.9445 18.2146 12.9634 18.247C12.9769 18.2685 13.0389 18.4114 12.9931 18.2955C13.02 18.3629 13.0416 18.4303 13.0578 18.5031C13.0631 18.5273 13.0766 18.6459 13.0658 18.5219C13.0793 18.5785 13.082 18.6271 13.082 18.6783C13.0847 18.9236 13.2977 19.1608 13.5538 19.15C13.8072 19.1393 14.0282 18.9425 14.0255 18.6783C14.0147 17.8561 13.4514 17.0986 12.6399 16.9072C11.8393 16.7185 10.9524 17.0905 10.583 17.8399C10.2326 18.5489 10.3809 19.3899 10.8095 20.0343C11.0144 20.3416 11.2866 20.6327 11.629 20.7837C12.0253 20.9562 12.427 20.9508 12.8178 20.7648C13.1871 20.5896 13.4837 20.2472 13.6805 19.8941C13.888 19.5248 14.0201 19.1015 14.0255 18.6756C14.0282 18.4276 13.8072 18.193 13.5538 18.2038C13.295 18.2173 13.0847 18.4141 13.082 18.6783Z" fill="#616161"/>
<path d="M14.9207 23.1266V24.1995H9.50232V23.1266C9.50232 22.361 10.1143 21.7464 10.8825 21.7464H11.206L12.2089 22.8436L13.2036 21.7464H13.5271C14.2927 21.7464 14.9208 22.3583 14.9208 23.1266H14.9207Z" fill="#616161"/>
<path d="M14.4406 23.1266V24.2076C14.5969 24.0513 14.756 23.8922 14.9123 23.7359H13.0765H10.1651H9.4912C9.64755 23.8922 9.8066 24.0513 9.96295 24.2076V23.1832V23.1293V23.0889C9.96295 23.07 9.96565 23.0512 9.96565 23.0323C9.96565 23.0188 9.97643 22.9379 9.96565 23.0026C9.95756 23.07 9.97913 22.9406 9.98452 22.9218C9.99261 22.8867 10.0034 22.8517 10.0142 22.8193C10.0277 22.7762 10.0546 22.725 10.0169 22.8004C10.0384 22.7573 10.0573 22.7169 10.0816 22.6737C10.1004 22.6441 10.1193 22.6144 10.1382 22.5848C10.184 22.5093 10.0897 22.6333 10.149 22.5686C10.2029 22.5066 10.2595 22.45 10.3215 22.3961C10.3862 22.3368 10.2622 22.4311 10.3377 22.3853C10.3673 22.3664 10.397 22.3476 10.4266 22.3287C10.4617 22.3071 10.5021 22.2936 10.5371 22.2721C10.583 22.2451 10.5102 22.2829 10.5048 22.2856C10.5264 22.2775 10.5506 22.2694 10.5722 22.2613C10.618 22.2451 10.6639 22.2343 10.7124 22.2236C10.7312 22.2209 10.7474 22.2182 10.7663 22.2128C10.831 22.1966 10.6827 22.2182 10.7501 22.2155C10.8067 22.2128 10.8606 22.2101 10.9173 22.2101H11.2057C11.0952 22.1643 10.9846 22.1184 10.8714 22.0726C11.2057 22.4392 11.54 22.8031 11.8743 23.1698C12.0387 23.3504 12.3757 23.3531 12.5401 23.1698C12.8717 22.8032 13.2033 22.4392 13.5349 22.0726C13.4244 22.1184 13.3138 22.1643 13.2006 22.2101H13.5241C13.5753 22.2101 13.6238 22.2155 13.6751 22.2182C13.5645 22.2101 13.7074 22.2263 13.7478 22.237C13.7991 22.2505 13.8503 22.2694 13.9015 22.2856C13.8018 22.2559 13.8772 22.2748 13.9015 22.2883C13.9285 22.3017 13.9527 22.3152 13.9797 22.3287C14.0012 22.3395 14.0201 22.353 14.039 22.3664C14.0498 22.3745 14.136 22.4284 14.0767 22.3907C14.0255 22.3557 14.0875 22.3988 14.0983 22.4096C14.1199 22.4284 14.1414 22.4473 14.163 22.4689C14.2007 22.5066 14.2331 22.547 14.2681 22.5848C14.3113 22.6279 14.2115 22.4958 14.2681 22.5875C14.2816 22.6064 14.2951 22.6252 14.3059 22.6468C14.3355 22.698 14.3625 22.7492 14.3867 22.8031C14.3382 22.7034 14.3948 22.8382 14.4056 22.8759C14.4218 22.9272 14.4299 22.9811 14.4407 23.035C14.4326 22.9999 14.4353 22.9595 14.438 23.0188C14.438 23.0512 14.4407 23.0889 14.4407 23.1266C14.4434 23.372 14.6563 23.6092 14.9124 23.5984C15.1658 23.5876 15.3869 23.3908 15.3842 23.1266C15.3707 22.1076 14.5458 21.2773 13.5241 21.2666C13.419 21.2666 13.3138 21.2612 13.2087 21.2666C13.0443 21.2747 12.9176 21.3448 12.8124 21.4634C12.6426 21.6494 12.4755 21.8381 12.3056 22.0241C12.1601 22.1831 12.0172 22.3449 11.8716 22.5039H12.5375C12.3434 22.291 12.1493 22.078 11.9552 21.865C11.8447 21.7437 11.7342 21.6224 11.621 21.4984C11.4916 21.3555 11.3541 21.2666 11.1465 21.2666C10.9147 21.2666 10.6882 21.2639 10.4591 21.3151C10.1491 21.3825 9.86333 21.5442 9.62613 21.7518C9.20829 22.1211 9.01691 22.6576 9.01691 23.2049V24.2077C9.01691 24.4638 9.23257 24.6795 9.48866 24.6795H11.3245H14.2359H14.9098C15.1659 24.6795 15.3816 24.4638 15.3816 24.2077V23.1267C15.3816 22.8787 15.1659 22.6441 14.9098 22.6549C14.6591 22.6657 14.4407 22.8625 14.4407 23.1267L14.4406 23.1266Z" fill="#616161"/>
<path d="M22.2961 18.6783C22.2961 19.425 21.6895 20.4467 20.9428 20.4467C20.1961 20.4467 19.5895 19.425 19.5895 18.6783C19.5895 17.9316 20.1961 17.325 20.9428 17.325C21.6895 17.325 22.2961 17.9316 22.2961 18.6783Z" fill="#616161"/>
<path d="M21.8243 18.6783C21.8243 18.7106 21.8243 18.743 21.8216 18.7753C21.8189 18.8104 21.8324 18.9047 21.8243 18.7807C21.827 18.8319 21.8028 18.8966 21.792 18.9479C21.7758 19.0179 21.7542 19.0853 21.7327 19.1527C21.7219 19.1878 21.7057 19.2201 21.6949 19.2552C21.7327 19.1446 21.6949 19.2552 21.6842 19.2767C21.6275 19.398 21.5575 19.5086 21.482 19.6218C21.4173 19.7215 21.5467 19.5517 21.4685 19.6407C21.4442 19.6676 21.4227 19.6946 21.3984 19.7188C21.3526 19.7701 21.2987 19.8132 21.2501 19.859C21.3391 19.7781 21.2609 19.8509 21.2394 19.8644C21.2124 19.8833 21.1854 19.8995 21.1558 19.9156C21.1423 19.9237 21.083 19.9642 21.0695 19.9588C21.0668 19.9588 21.1827 19.921 21.0938 19.9453C21.0641 19.9534 21.0318 19.9615 21.0048 19.9695C20.9051 20.0019 21.1127 19.9695 21.0075 19.9722C20.9752 19.9722 20.9455 19.9749 20.9132 19.9749C20.9024 19.9749 20.8916 19.9749 20.8808 19.9722C20.8296 19.9668 20.8404 19.9695 20.9132 19.9776C20.9132 19.9776 20.8296 19.9561 20.8215 19.9561C20.8107 19.9534 20.8026 19.9507 20.7919 19.9453C20.7433 19.9264 20.7514 19.9318 20.8161 19.9588C20.7865 19.9642 20.7029 19.8995 20.6759 19.8833C20.649 19.8644 20.622 19.8455 20.5951 19.8267C20.6948 19.8995 20.6058 19.8321 20.587 19.8132C20.5358 19.7674 20.4872 19.7161 20.4414 19.6649C20.4279 19.6488 20.3578 19.5544 20.4252 19.6488C20.4037 19.6191 20.3821 19.5895 20.3632 19.5598C20.3309 19.5086 20.2985 19.4574 20.2689 19.4034C20.2338 19.3387 20.2015 19.274 20.1718 19.2066C20.215 19.3037 20.1826 19.2282 20.1718 19.2013C20.1583 19.1608 20.1449 19.1231 20.1314 19.0826C20.1098 19.0153 20.0936 18.9479 20.0802 18.8778C20.0748 18.8508 20.0721 18.8212 20.064 18.7942C20.0478 18.7268 20.0721 18.9128 20.0667 18.805C20.064 18.7376 20.0586 18.6702 20.064 18.6001C20.064 18.5947 20.0802 18.4734 20.0667 18.5516C20.0559 18.6244 20.0829 18.4842 20.0856 18.4707C20.0936 18.4357 20.1044 18.4006 20.1152 18.3656C20.1233 18.3413 20.1745 18.2389 20.1206 18.3467C20.1476 18.2928 20.1745 18.2416 20.2042 18.1904C20.223 18.1607 20.2446 18.131 20.2635 18.1041C20.1934 18.2011 20.2635 18.1068 20.2797 18.0906C20.2958 18.0744 20.312 18.0556 20.3282 18.0394C20.347 18.0232 20.4657 17.9262 20.3659 17.999C20.4225 17.9558 20.4818 17.9181 20.5438 17.8857L20.6085 17.8534C20.5034 17.9073 20.6058 17.8561 20.6274 17.848C20.6975 17.8237 20.7676 17.8129 20.8377 17.7941C20.7406 17.8183 20.7945 17.7995 20.8215 17.7968C20.8727 17.7941 20.9212 17.7914 20.9725 17.7914C21.0102 17.7914 21.0479 17.7968 21.0857 17.7995C20.9617 17.7887 21.0938 17.8049 21.1234 17.8102C21.1531 17.8183 21.1827 17.8237 21.2097 17.8345C21.2366 17.8426 21.3741 17.9073 21.2636 17.8507C21.3283 17.883 21.3903 17.9154 21.4496 17.9558C21.4712 17.9693 21.5521 18.0448 21.4658 17.9666C21.5008 17.999 21.5359 18.0286 21.5682 18.061C21.5925 18.0852 21.6141 18.1122 21.6383 18.1391C21.5871 18.0825 21.6194 18.1149 21.6491 18.1553C21.668 18.185 21.6868 18.2146 21.7057 18.247C21.7192 18.2685 21.7812 18.4114 21.7354 18.2955C21.7623 18.3629 21.7839 18.4303 21.8001 18.5031C21.8055 18.5273 21.8189 18.6459 21.8082 18.5219C21.8189 18.5785 21.8243 18.6271 21.8243 18.6783C21.827 18.9236 22.04 19.1608 22.2961 19.15C22.5495 19.1393 22.7705 18.9425 22.7678 18.6783C22.7571 17.8561 22.1937 17.0986 21.3822 16.9072C20.5816 16.7185 19.6947 17.0905 19.3253 17.8399C18.9749 18.5489 19.1232 19.3899 19.5518 20.0343C19.7567 20.3416 20.0289 20.6327 20.3713 20.7837C20.7676 20.9562 21.1693 20.9508 21.5601 20.7648C21.9294 20.5896 22.226 20.2472 22.4228 19.8941C22.6303 19.5248 22.7624 19.1015 22.7678 18.6756C22.7705 18.4276 22.5495 18.193 22.2961 18.2038C22.0373 18.2173 21.827 18.4141 21.8243 18.6783L21.8243 18.6783Z" fill="#616161"/>
<path d="M23.6551 23.1266V24.1995H18.2368V23.1266C18.2368 22.361 18.8568 21.7464 19.6224 21.7464H19.9458L20.9487 22.8436L21.9434 21.7464H22.2669C23.0325 21.7464 23.6552 22.3583 23.6552 23.1266H23.6551Z" fill="#616161"/>
<path d="M23.1829 23.1266V24.2076L23.6547 23.7359H21.8188H18.9075H18.2335C18.3899 23.8922 18.5489 24.0513 18.7053 24.2076V23.1832V23.1293V23.0889C18.7053 23.07 18.708 23.0512 18.708 23.0323C18.708 23.0188 18.7187 22.9379 18.708 23.0026C18.6999 23.07 18.7214 22.9406 18.7268 22.9218C18.7349 22.8867 18.7457 22.8517 18.7565 22.8193C18.77 22.7762 18.7969 22.725 18.7592 22.8004C18.7807 22.7573 18.7996 22.7169 18.8239 22.6737C18.8427 22.6441 18.8616 22.6144 18.8805 22.5848C18.9263 22.5093 18.832 22.6333 18.8913 22.5686C18.9452 22.5066 19.0018 22.45 19.0638 22.3961C19.1285 22.3368 19.0045 22.4311 19.08 22.3853C19.1096 22.3664 19.1393 22.3476 19.1689 22.3287C19.204 22.3071 19.2444 22.2936 19.2795 22.2721C19.3253 22.2451 19.2525 22.2829 19.2471 22.2856C19.2687 22.2775 19.2929 22.2694 19.3145 22.2613C19.3603 22.2451 19.4062 22.2343 19.4547 22.2236C19.4736 22.2209 19.4897 22.2182 19.5086 22.2128C19.5733 22.1966 19.425 22.2182 19.4924 22.2155C19.549 22.2128 19.603 22.2101 19.6596 22.2101H19.948C19.8375 22.1643 19.727 22.1184 19.6137 22.0726C19.948 22.4392 20.2823 22.8031 20.6166 23.1698C20.781 23.3504 21.118 23.3531 21.2824 23.1698C21.614 22.8032 21.9456 22.4392 22.2772 22.0726C22.1667 22.1184 22.0561 22.1643 21.9429 22.2101H22.2664C22.3176 22.2101 22.3662 22.2155 22.4174 22.2182C22.3068 22.2101 22.4497 22.2263 22.4902 22.237C22.5414 22.2505 22.5926 22.2694 22.6438 22.2856C22.5441 22.2559 22.6196 22.2748 22.6438 22.2883C22.6708 22.3017 22.695 22.3152 22.722 22.3287C22.7436 22.3395 22.7624 22.353 22.7813 22.3664C22.7921 22.3745 22.8783 22.4284 22.819 22.3907C22.7678 22.3557 22.8298 22.3988 22.8406 22.4096C22.8622 22.4284 22.8837 22.4473 22.9053 22.4689C22.943 22.5066 22.9754 22.547 23.0104 22.5848C23.0536 22.6279 22.9538 22.4958 23.0104 22.5875C23.0239 22.6064 23.0374 22.6252 23.0482 22.6468C23.0778 22.698 23.1048 22.7492 23.1291 22.8031C23.0805 22.7034 23.1371 22.8382 23.1479 22.8759C23.1641 22.9272 23.1722 22.9811 23.183 23.035C23.1749 22.9999 23.1776 22.9595 23.1803 23.0188C23.1803 23.0512 23.183 23.0889 23.183 23.1266C23.1857 23.372 23.3986 23.6092 23.6547 23.5984C23.9081 23.5876 24.1292 23.3908 24.1265 23.1266C24.113 22.1076 23.2881 21.2773 22.2664 21.2666C22.1613 21.2666 22.0562 21.2612 21.951 21.2666C21.7866 21.2747 21.6599 21.3448 21.5547 21.4634C21.3849 21.6494 21.2178 21.8381 21.048 22.0241C20.9024 22.1831 20.7595 22.3449 20.6139 22.5039H21.2798C21.0857 22.291 20.8916 22.078 20.6975 21.865C20.587 21.7437 20.4765 21.6224 20.3633 21.4984C20.2339 21.3555 20.0964 21.2666 19.8888 21.2666C19.657 21.2666 19.4305 21.2639 19.2014 21.3151C18.8914 21.3825 18.6056 21.5442 18.3684 21.7518C17.9506 22.1211 17.7592 22.6576 17.7592 23.2049V24.2077C17.7592 24.4638 17.9749 24.6795 18.231 24.6795H20.0668H22.9782H23.6521C23.9082 24.6795 24.1239 24.4638 24.1239 24.2077V23.1267C24.1239 22.8787 23.9082 22.6441 23.6521 22.6549C23.3987 22.6657 23.1831 22.8625 23.1831 23.1267L23.1829 23.1266Z" fill="#616161"/>
</svg>
